#N canvas 1043 399 367 389 12;
#X obj 87 238 - 1;
#X obj 54 214 * 2;
#X obj 54 238 - 1;
#X obj 54 190 & 1;
#X obj 87 190 & 2;
#X obj 54 46 inlet;
#X obj 54 318 outlet;
#X obj 54 102 array get \$1 0 1;
#X obj 121 238 - 1;
#X obj 121 190 & 4;
#X obj 121 214 / 2;
#X obj 54 142 % 8;
#X obj 54 166 t f f f;
#X obj 54 264 pack f f f;
#X connect 0 0 13 1;
#X connect 1 0 2 0;
#X connect 2 0 13 0;
#X connect 3 0 1 0;
#X connect 4 0 0 0;
#X connect 5 0 7 0;
#X connect 7 0 11 0;
#X connect 8 0 13 2;
#X connect 9 0 10 0;
#X connect 10 0 8 0;
#X connect 11 0 12 0;
#X connect 12 0 3 0;
#X connect 12 1 4 0;
#X connect 12 2 9 0;
#X connect 13 0 6 0;
